<?xml version="1.0" encoding="utf-8"?>
<!-- Generator: Adobe Illustrator 26.2.1, SVG Export Plug-In . SVG Version: 6.00 Build 0)  -->
<svg version="1.1" id="Layer_1" xmlns="http://www.w3.org/2000/svg" xmlns:xlink="http://www.w3.org/1999/xlink" x="0px" y="0px"
	 viewBox="0 0 84.9 112.1" style="enable-background:new 0 0 84.9 112.1;" xml:space="preserve">
<style type="text/css">
	.st0{fill:#F4EA5D;stroke:#000000;stroke-width:0.5;stroke-miterlimit:10;}
	.st1{fill:#EBE319;}
	.st2{opacity:0.42;fill:#64B878;enable-background:new    ;}
	.st3{fill:#EBE319;stroke:#000000;stroke-width:0.5;stroke-miterlimit:10;}
	.st4{fill:none;stroke:#64B878;stroke-miterlimit:10;}
	.st5{fill:none;stroke:#FFFFFF;stroke-width:0.24;stroke-miterlimit:10;}
	.st6{fill:none;stroke:#000000;stroke-width:0.26;stroke-miterlimit:10;}
	.st7{fill:none;stroke:#1A7332;stroke-width:0.38;stroke-linecap:round;stroke-miterlimit:10;}
	.st8{fill:none;stroke:#1A7332;stroke-width:0.36;stroke-linecap:round;stroke-miterlimit:10;}
	.st9{fill:none;stroke:#64B878;stroke-width:0.98;stroke-miterlimit:10;}
	.st10{fill:none;stroke:#000000;stroke-width:0.5;stroke-miterlimit:10;}
</style>
<g>
	<circle class="st0" cx="44.1" cy="65.8" r="28.1"/>
	<circle class="st0" cx="40.9" cy="65.8" r="28.1"/>
	<circle class="st1" cx="40.5" cy="65.8" r="25"/>
	<path class="st2" d="M38,28.3c-0.5-1.4-1.4-2.7-2.7-3.7c-1.7-1.4-3.8-2-5.6-1.8c-0.5,0-0.9,0.5-0.8,1c0.2,1.8,1.3,3.7,3,5
		c1.3,1,2.8,1.6,4.3,1.8"/>
	<path class="st2" d="M41.1,25.6c0.2-1.5,0.8-2.9,2-4c1.6-1.6,3.8-2.2,5.9-1.9c0.4,0.1,0.7,0.4,0.7,0.7c0.3,2.1-0.3,4.3-1.9,5.9
		c-1.2,1.1-2.6,1.8-4.1,2"/>
	<g>
		<path class="st3" d="M15.5,65.8c0-14,11.4-25.4,25.4-25.4s25.4,11.4,25.4,25.4S54.9,91.2,40.9,91.2"/>
		<path class="st4" d="M39.7,56v2.2c-3,0.5-4.9,2.5-4.9,5.2s2.1,4.3,5.4,5.6 M41.7,56v2c2,0,3.3,0.6,4.2,1.1l-0.8,2.1
			c-0.7-0.4-2-1.1-4.1-1.1c-2.5,0-3.4,1.5-3.4,2.8c0,1.7,1.2,2.5,4,3.7 M41.9,61.9c3.3,1.4,5,3.1,5,6c0,2.6-1.8,5-5.2,5.5v3.4h-2
			v-3.3c-1.9,0-3.8-0.6-5-1.4l0.8-2.2c1.2,0.8,2.9,1.4,4.7,1.4c2.3,0,3.9-1.3,3.9-3.2c0-1.9-1.3-2.9-3.7-3.9"/>
		<path class="st5" d="M39.6,29.4H42v25.1h-2.4V29.4z"/>
		<path class="st6" d="M39.7,56V29.4h2V56"/>
		<path class="st7" d="M40.9,28.4l3.2-3.2"/>
		<path class="st8" d="M34.8,27.1l3.4,2.7"/>
		<path class="st9" d="M39.7,56V30.3h2V56"/>
		<path class="st4" d="M48.5,27c-2.3,2.3-5.6,3.1-8.6,2.4c-0.7-3,0.1-6.2,2.4-8.6s5.6-3.1,8.5-2.4C51.6,21.4,50.8,24.7,48.5,27
			L48.5,27z"/>
		<path class="st9" d="M31.1,29.7c2.5,1.9,5.6,2.3,8.3,1.3c0.2-2.8-1-5.7-3.5-7.6c-2.5-1.9-5.6-2.3-8.3-1.3
			C27.4,24.9,28.7,27.8,31.1,29.7z"/>
		<path class="st10" d="M69,66.7h3.2"/>
		<path class="st10" d="M69,63.1h3.2"/>
		<path class="st10" d="M67.9,57.4h3.2"/>
		<path class="st10" d="M68.6,60.2h3.2"/>
		<path class="st10" d="M66.5,54.7h3.2"/>
		<path class="st10" d="M65.7,52.5H69"/>
		<path class="st10" d="M64.1,50.2h3.2"/>
		<path class="st10" d="M62.7,48h3.2"/>
		<path class="st10" d="M60.6,45.7h3.2"/>
		<path class="st10" d="M58.4,43.8h3.2"/>
		<path class="st10" d="M56.1,41.9h2.8"/>
		<path class="st10" d="M53.2,40.4h2.8"/>
		<path class="st10" d="M51,39.4h2.8"/>
		<path class="st10" d="M48.2,38.8H51"/>
		<path class="st10" d="M68.6,70.3h3.2"/>
		<path class="st10" d="M68.1,73.3h3.2"/>
		<path class="st10" d="M67,76.3h3.2"/>
		<path class="st10" d="M65.7,78.6H69"/>
		<path class="st10" d="M64.7,80.8h3.2"/>
		<path class="st10" d="M63,83h3.2"/>
		<path class="st10" d="M61.1,85.2h3.2"/>
		<path class="st10" d="M58.9,87.4h3.2"/>
		<path class="st10" d="M56.5,89.1h3.2"/>
		<path class="st10" d="M54.9,90.1h3.2"/>
		<path class="st10" d="M52.5,91.5h3.2"/>
	</g>
</g>
</svg>
