<svg viewBox="0 0 84.94 112.12" xmlns="http://www.w3.org/2000/svg"><circle cx="44.08" cy="48.16" fill="#f4ea5d" r="28.11" stroke="#000" stroke-miterlimit="10" stroke-width=".5"/><circle cx="40.85" cy="48.16" fill="#f4ea5d" r="28.11" stroke="#000" stroke-miterlimit="10" stroke-width=".5"/><circle cx="40.47" cy="48.16" fill="#ebe319" r="25.02"/><path d="m37.97 10.62c-.48-1.35-1.41-2.65-2.71-3.68-1.74-1.37-3.8-1.97-5.6-1.77-.51.05-.88.52-.82 1.04.24 1.8 1.3 3.66 3.04 5.03 1.32 1.04 2.83 1.64 4.27 1.78" fill="#64b878" opacity=".42"/><path d="m41.1 7.93c.18-1.48.84-2.91 1.97-4.04 1.61-1.61 3.8-2.25 5.88-1.93.36.06.66.35.72.72.32 2.08-.33 4.28-1.93 5.88-1.15 1.15-2.6 1.81-4.1 1.98" fill="#64b878" opacity=".42"/><g stroke-miterlimit="10"><path d="m15.45 48.16c0-14.03 11.38-25.41 25.41-25.41s25.41 11.38 25.41 25.41-11.38 25.41-25.41 25.41" fill="#ebe319" stroke="#000" stroke-width=".5"/><path d="m39.68 38.3v2.17c-2.99.49-4.92 2.54-4.92 5.25s2.06 4.32 5.37 5.63m1.56-13.05v2.05c1.96.05 3.29.58 4.23 1.13l-.81 2.14c-.68-.38-2.01-1.1-4.1-1.1-2.51 0-3.44 1.5-3.44 2.79 0 1.69 1.2 2.54 4.04 3.72m.29-4.77c3.35 1.36 5.05 3.06 5.05 5.95 0 2.57-1.79 4.98-5.15 5.54v3.38h-2.05v-3.29c-1.89-.02-3.84-.62-4.98-1.43l.78-2.18c1.18.78 2.87 1.4 4.69 1.4 2.31 0 3.88-1.33 3.88-3.19s-1.28-2.89-3.68-3.87" fill="none" stroke="#64b878"/><path d="m39.55 11.74h2.4v25.05h-2.4z" fill="none" stroke="#fff" stroke-width=".24"/><path d="m39.68 38.34v-26.6h2.01v26.6" fill="none" stroke="#000" stroke-width=".26"/><path d="m40.85 10.71 3.23-3.23" fill="none" stroke="#1a7332" stroke-linecap="round" stroke-width=".38"/><path d="m34.77 9.4 3.39 2.68" fill="none" stroke="#1a7332" stroke-linecap="round" stroke-width=".36"/><path d="m39.68 38.34v-25.74h2.01v25.74" fill="none" stroke="#64b878" stroke-width=".98"/><path d="m48.48 9.3c-2.32 2.32-5.57 3.12-8.56 2.41-.71-2.99.09-6.24 2.41-8.56s5.57-3.12 8.54-2.39c.74 2.96-.07 6.22-2.38 8.54z" fill="none" stroke="#64b878"/><path d="m31.14 12.04c2.49 1.89 5.62 2.28 8.28 1.31.22-2.83-1-5.74-3.48-7.63s-5.62-2.28-8.26-1.29c-.25 2.81.97 5.72 3.46 7.61z" fill="none" stroke="#64b878" stroke-width=".98"/><path d="m68.96 49.04h3.23" fill="none" stroke="#000" stroke-width=".5"/><path d="m68.96 45.47h3.23" fill="none" stroke="#000" stroke-width=".5"/><path d="m67.86 39.72h3.23" fill="none" stroke="#000" stroke-width=".5"/><path d="m68.63 42.5h3.23" fill="none" stroke="#000" stroke-width=".5"/><path d="m66.49 37.02h3.23" fill="none" stroke="#000" stroke-width=".5"/><path d="m65.73 34.78h3.23" fill="none" stroke="#000" stroke-width=".5"/><path d="m64.12 32.54h3.23" fill="none" stroke="#000" stroke-width=".5"/><path d="m62.67 30.3h3.23" fill="none" stroke="#000" stroke-width=".5"/><path d="m60.55 28.06h3.23" fill="none" stroke="#000" stroke-width=".5"/><path d="m58.43 26.15h3.23" fill="none" stroke="#000" stroke-width=".5"/><path d="m56.05 24.27h2.84" fill="none" stroke="#000" stroke-width=".5"/><path d="m53.21 22.75h2.84" fill="none" stroke="#000" stroke-width=".5"/><path d="m51.03 21.77h2.84" fill="none" stroke="#000" stroke-width=".5"/><path d="m48.19 21.09h2.84" fill="none" stroke="#000" stroke-width=".5"/><path d="m68.63 52.6h3.23" fill="none" stroke="#000" stroke-width=".5"/><path d="m68.11 55.64h3.23" fill="none" stroke="#000" stroke-width=".5"/><path d="m67.02 58.67h3.23" fill="none" stroke="#000" stroke-width=".5"/><path d="m65.73 60.89h3.23" fill="none" stroke="#000" stroke-width=".5"/><path d="m64.65 63.1h3.23" fill="none" stroke="#000" stroke-width=".5"/><path d="m63.03 65.32h3.23" fill="none" stroke="#000" stroke-width=".5"/><path d="m61.05 67.53h3.23" fill="none" stroke="#000" stroke-width=".5"/><path d="m58.94 69.75h3.23" fill="none" stroke="#000" stroke-width=".5"/><path d="m56.54 71.4h3.23" fill="none" stroke="#000" stroke-width=".5"/><path d="m54.92 72.45h3.23" fill="none" stroke="#000" stroke-width=".5"/><path d="m52.45 73.87h3.23" fill="none" stroke="#000" stroke-width=".5"/></g><text fill="#ffff" font-family="FjallaOne-Regular, Fjalla One" font-size="17" transform="translate(0 96.78)"><tspan x="0" y="0">BUDGET NEST</tspan></text><path d="m10.81 106.33c-.38 0-.74-.08-1.06-.25-.33-.17-.61-.38-.85-.66-.24-.27-.43-.58-.56-.93-.13-.34-.2-.69-.2-1.05s.06-.73.19-1.08.31-.65.54-.92.51-.48.83-.64.67-.24 1.05-.24c.57 0 1.02.12 1.37.35s.61.53.8.89l-.34.2c-.19-.37-.45-.64-.76-.81-.32-.17-.68-.25-1.08-.25-.34 0-.64.07-.91.21s-.5.33-.7.57c-.19.24-.34.51-.44.8-.1.3-.15.61-.15.92 0 .34.06.65.18.95s.28.57.49.8.45.42.73.55.57.2.89.2c.37 0 .71-.09 1.04-.27s.64-.46.94-.84v.46c-.57.69-1.23 1.03-2 1.03zm1.91-2.47h-1.29v-.33h1.64v2.76h-.35z" fill="#ffff"/><path d="m16.12 102.49c-.37.01-.7.12-.98.33s-.48.5-.59.87v2.6h-.4v-4.15h.38v1.02c.14-.29.34-.53.58-.72.24-.18.49-.29.76-.32h.14.1v.38z" fill="#ffff"/><path d="m18.46 106.37c-.29 0-.56-.06-.81-.17s-.46-.27-.64-.47-.32-.43-.42-.69-.15-.53-.15-.82.05-.58.15-.83c.1-.26.24-.49.43-.69s.4-.36.65-.47.52-.17.8-.17.55.06.8.17.46.27.65.47.33.43.43.69.15.54.15.83-.05.56-.15.82-.24.49-.43.69c-.18.2-.4.35-.65.47-.25.11-.52.17-.8.17zm-1.63-2.14c0 .33.07.63.22.9s.34.48.59.64.52.24.82.24.57-.08.82-.24.45-.38.59-.65.22-.57.22-.9-.07-.62-.22-.89-.34-.49-.59-.65-.52-.24-.82-.24-.57.08-.82.25-.45.38-.59.65c-.15.27-.22.57-.22.9z" fill="#ffff"/><path d="m26.58 102.13h.4l-1.8 4.15h-.35l-.92-2.16-.92 2.16h-.35l-1.8-4.15h.39l1.59 3.71.86-2.03-.7-1.68h.36l.57 1.37.56-1.37h.37l-.7 1.68.86 2.03z" fill="#ffff"/><path d="m29.65 107.69h.23c.07 0 .12-.01.15-.04.05-.02.1-.06.15-.12.05-.07.12-.2.2-.39.09-.2.21-.48.36-.86l-1.86-4.15h.42l1.65 3.73 1.53-3.73h.41l-2.28 5.46c-.03.08-.08.16-.13.23s-.12.12-.2.16-.18.06-.29.07c-.05 0-.1 0-.15.01-.05 0-.11 0-.18 0v-.37z" fill="#ffff"/><path d="m35.29 106.37c-.29 0-.56-.06-.81-.17s-.46-.27-.64-.47-.32-.43-.42-.69-.15-.53-.15-.82.05-.58.15-.83c.1-.26.24-.49.43-.69s.4-.36.65-.47.52-.17.8-.17.55.06.8.17.46.27.65.47.33.43.43.69.15.54.15.83-.05.56-.15.82-.24.49-.43.69c-.18.2-.4.35-.65.47-.25.11-.52.17-.8.17zm-1.63-2.14c0 .33.07.63.22.9s.34.48.59.64.52.24.82.24.57-.08.82-.24.45-.38.59-.65.22-.57.22-.9-.07-.62-.22-.89-.34-.49-.59-.65-.52-.24-.82-.24-.57.08-.82.25-.45.38-.59.65c-.15.27-.22.57-.22.9z" fill="#ffff"/><path d="m38.24 104.53v-2.4h.4v2.34c0 .52.09.9.26 1.15s.44.38.79.38c.23 0 .46-.05.68-.16s.41-.25.57-.44c.17-.19.29-.41.37-.66v-2.62h.4v3.62c0 .06.01.11.04.14s.07.05.12.06v.33c-.05 0-.09 0-.12 0s-.05 0-.08 0c-.09-.01-.17-.05-.22-.12-.06-.07-.09-.15-.1-.24v-.62c-.19.33-.44.59-.76.78s-.66.28-1.03.28c-.44 0-.77-.15-.99-.46s-.34-.77-.34-1.37z" fill="#ffff"/><path d="m44.94 102.49c-.37.01-.7.12-.98.33s-.48.5-.59.87v2.6h-.4v-4.15h.38v1.02c.14-.29.34-.53.58-.72.24-.18.49-.29.76-.32h.14.1v.38z" fill="#ffff"/><path d="m47.75 102.45h-.58v-.33h.58v-.14c0-.19.03-.38.08-.56.05-.19.14-.36.25-.52s.26-.29.44-.39.39-.15.64-.15c.19 0 .37.02.52.06s.28.09.38.14.17.1.21.13l-.2.28c-.07-.06-.19-.12-.35-.18-.16-.05-.34-.08-.54-.08-.24 0-.44.06-.59.19s-.26.29-.33.48-.1.39-.1.58v.14h2.04v4.16h-.4v-3.83h-1.64v3.83h-.4v-3.83z" fill="#ffff"/><path d="m54.84 106.29h-.4v-2.31c0-.53-.08-.92-.23-1.17s-.39-.37-.72-.37c-.23 0-.47.06-.69.17s-.42.26-.59.46c-.17.19-.29.41-.36.66v2.57h-.4v-4.15h.38v1c.11-.21.26-.4.45-.55.19-.16.39-.28.62-.37s.47-.14.71-.14c.23 0 .42.04.58.12s.29.2.38.35c.1.15.17.35.21.57s.06.49.06.78z" fill="#ffff"/><path d="m55.7 105.09c0-.25.07-.47.22-.65s.35-.33.62-.43c.26-.1.56-.16.9-.16.21 0 .43.02.66.06s.43.09.62.15v-.39c0-.38-.11-.69-.33-.92s-.53-.34-.92-.34c-.21 0-.42.04-.65.13-.22.09-.45.21-.69.37l-.17-.29c.27-.18.53-.32.79-.41.25-.09.51-.14.76-.14.5 0 .89.15 1.18.44s.43.69.43 1.19v2.06c0 .06.01.11.04.14s.07.05.13.06v.33s-.09 0-.12 0h-.08c-.1-.02-.18-.06-.24-.13s-.09-.15-.09-.23v-.33c-.19.24-.44.43-.74.56s-.62.2-.95.2c-.26 0-.5-.06-.71-.17s-.38-.26-.5-.46-.18-.41-.18-.65zm2.86.34c.05-.07.09-.13.12-.2.03-.06.04-.12.04-.17v-.69c-.19-.07-.39-.13-.6-.17s-.42-.06-.64-.06c-.42 0-.75.08-1.01.25-.26.16-.39.39-.39.67 0 .17.05.34.14.49s.22.27.38.36.35.13.56.13c.3 0 .57-.06.83-.17.25-.11.44-.26.57-.44z" fill="#ffff"/><path d="m63.74 106.29h-.4v-2.31c0-.53-.08-.92-.23-1.17s-.39-.37-.72-.37c-.23 0-.47.06-.69.17s-.42.26-.59.46c-.17.19-.29.41-.36.66v2.57h-.4v-4.15h.38v1c.11-.21.26-.4.45-.55.19-.16.39-.28.62-.37s.47-.14.71-.14c.23 0 .42.04.58.12s.29.2.38.35c.1.15.17.35.21.57s.06.49.06.78z" fill="#ffff"/><path d="m66.72 106.37c-.29 0-.56-.06-.81-.17s-.47-.27-.66-.47-.33-.43-.44-.69-.16-.54-.16-.84c0-.4.09-.76.26-1.08.18-.32.42-.57.73-.76s.66-.29 1.06-.29.71.09 1 .26.5.41.65.71l-.39.13c-.12-.23-.3-.41-.52-.54-.23-.13-.48-.2-.75-.2-.3 0-.58.08-.82.23s-.44.37-.59.63c-.15.27-.22.57-.22.9s.07.63.22.91.35.5.6.66.52.24.82.24c.19 0 .38-.04.56-.11s.34-.17.48-.28c.14-.12.23-.24.27-.38l.39.11c-.07.2-.19.37-.36.52s-.37.27-.6.36-.47.13-.73.13z" fill="#ffff"/><path d="m71.04 106.37c-.29 0-.57-.06-.82-.17s-.47-.27-.65-.47-.33-.43-.43-.69-.16-.54-.16-.83c0-.39.09-.75.26-1.07.18-.32.42-.58.73-.77s.66-.29 1.04-.29.74.1 1.05.29.55.46.72.78.27.67.27 1.06v.1s0 .06 0 .08h-3.65c.02.31.11.6.26.85s.35.46.6.6c.24.15.51.22.8.22s.56-.07.82-.22.43-.34.54-.58l.35.1c-.08.2-.21.37-.38.53s-.38.28-.61.36-.48.13-.73.13zm-1.66-2.3h3.29c-.02-.32-.11-.61-.26-.86s-.35-.45-.59-.59-.51-.21-.8-.21-.56.07-.8.21-.44.34-.58.59c-.15.25-.23.54-.26.86z" fill="#ffff"/><path d="m75.25 106.37c-.33 0-.64-.06-.92-.17s-.53-.28-.74-.51l.18-.28c.23.22.46.38.7.48.23.1.49.15.77.15.36 0 .65-.07.87-.22s.33-.36.33-.62c0-.18-.05-.32-.16-.42-.1-.1-.25-.18-.45-.24-.19-.06-.43-.13-.71-.2s-.52-.15-.72-.23c-.19-.08-.34-.18-.44-.31s-.14-.3-.14-.52c0-.27.07-.5.2-.67.14-.18.32-.31.55-.4s.49-.13.77-.13c.33 0 .61.05.85.16s.43.25.56.42l-.22.26c-.13-.17-.31-.3-.52-.38s-.45-.12-.7-.12c-.19 0-.37.03-.54.08s-.31.14-.41.26-.16.28-.16.48c0 .16.04.28.12.38.08.09.19.16.35.22s.35.12.58.18c.33.08.6.16.84.25s.42.19.54.33c.13.14.19.33.19.57 0 .38-.14.67-.43.89s-.67.33-1.14.33z" fill="#ffff"/></svg>