<svg width="414" height="514" viewBox="0 0 414 514" fill="none" xmlns="http://www.w3.org/2000/svg">
<path d="M374.553 320.582H395.952" stroke="black" stroke-width="3.31246" stroke-miterlimit="10"/>
<path d="M374.553 296.933H395.952" stroke="black" stroke-width="3.31246" stroke-miterlimit="10"/>
<path d="M367.266 258.839H388.664" stroke="black" stroke-width="3.31246" stroke-miterlimit="10"/>
<path d="M372.367 277.257H393.765" stroke="black" stroke-width="3.31246" stroke-miterlimit="10"/>
<path d="M358.189 240.952H379.588" stroke="black" stroke-width="3.31246" stroke-miterlimit="10"/>
<path d="M353.155 226.11H374.553" stroke="black" stroke-width="3.31246" stroke-miterlimit="10"/>
<path d="M372.367 344.167H393.765" stroke="black" stroke-width="3.31246" stroke-miterlimit="10"/>
<path d="M368.922 364.308H390.32" stroke="black" stroke-width="3.31246" stroke-miterlimit="10"/>
<path d="M361.701 384.381H383.099" stroke="black" stroke-width="3.31246" stroke-miterlimit="10"/>
<path d="M353.155 399.088H374.553" stroke="black" stroke-width="3.31246" stroke-miterlimit="10"/>
<path d="M223.505 513.598C328.404 513.598 413.441 428.56 413.441 323.661C413.441 218.762 328.404 133.724 223.505 133.724C118.606 133.724 33.568 218.762 33.568 323.661C33.568 428.56 118.606 513.598 223.505 513.598Z" fill="#F4EA5D" fill-opacity="0.71"/>
<path d="M209.725 131.936C206.147 131.936 202.57 132.069 199.059 132.267C194.156 132.532 189.254 132.996 184.484 133.725C179.714 134.255 175.077 135.05 170.439 136.11C174.944 135.646 179.449 135.381 184.086 135.381C185.478 135.249 186.935 135.248 188.326 135.248C191.904 135.248 195.548 135.381 199.059 135.58C202.57 135.381 206.147 135.248 209.725 135.248C211.116 135.248 212.574 135.249 213.965 135.381C218.602 135.381 223.107 135.646 227.612 136.11C321.024 145.186 394.295 224.089 394.295 319.819C394.295 396.403 347.391 462.189 280.81 490.08C264.182 497.036 246.294 501.673 227.612 503.462C223.041 503.926 218.47 504.191 213.766 504.191C212.441 504.323 211.05 504.323 209.725 504.323C206.147 504.323 202.57 504.191 199.059 503.992C195.548 504.191 191.904 504.323 188.326 504.323C187.001 504.323 185.61 504.323 184.285 504.191C179.581 504.191 175.01 503.926 170.439 503.462C175.077 504.522 179.714 505.317 184.484 505.847C189.254 506.576 194.156 507.039 199.059 507.304C202.57 507.503 206.147 507.636 209.725 507.636C313.339 507.636 397.608 423.367 397.608 319.819C397.608 216.271 313.339 131.936 209.725 131.936Z" fill="black"/>
<path d="M213.965 135.38C209.062 134.652 204.094 134.188 199.059 133.923C195.481 133.724 191.904 133.592 188.326 133.592C187.068 133.592 185.743 133.592 184.484 133.724C83.4538 135.645 2.0997 218.192 2.0997 319.818C2.0997 421.445 83.4538 503.925 184.484 505.846C185.743 505.979 187.068 505.979 188.326 505.979C191.904 505.979 195.481 505.846 199.059 505.647C204.027 505.382 208.93 504.919 213.766 504.19C304.594 491.868 374.553 414.025 374.553 319.818C374.553 225.612 304.66 147.835 213.965 135.38ZM199.059 503.991C195.548 504.19 191.904 504.322 188.326 504.322C187.001 504.322 185.61 504.322 184.285 504.19C179.582 504.19 175.01 503.925 170.439 503.461C77.0276 494.451 3.75593 415.548 3.75593 319.818C3.75593 224.088 77.0276 145.185 170.439 136.109C174.944 135.645 179.449 135.38 184.086 135.38C185.478 135.248 186.935 135.248 188.326 135.248C191.904 135.248 195.548 135.38 199.059 135.579C295.849 141.144 372.897 221.637 372.897 319.818C372.897 418 295.849 498.426 199.059 503.991Z" fill="white"/>
<path d="M227.612 136.109C222.975 135.049 218.337 134.254 213.567 133.724C208.797 132.995 203.961 132.532 199.059 132.267C195.481 132.068 191.904 131.935 188.326 131.935C84.7125 131.935 0.44342 216.204 0.44342 319.818C0.44342 423.432 84.7125 507.635 188.326 507.635C191.904 507.635 195.481 507.502 199.059 507.304C203.961 507.039 208.797 506.575 213.567 505.846C218.337 505.316 222.975 504.521 227.612 503.461C241.525 500.546 254.907 496.041 267.494 490.079C331.624 460.2 376.209 395.144 376.209 319.818C376.209 229.653 312.411 154.195 227.612 136.109ZM199.059 503.991C195.548 504.19 191.904 504.322 188.326 504.322C187.001 504.322 185.61 504.322 184.285 504.19C179.581 504.19 175.01 503.925 170.439 503.461C77.0276 494.451 3.75588 415.548 3.75588 319.818C3.75588 224.088 77.0276 145.185 170.439 136.109C174.944 135.645 179.449 135.38 184.086 135.38C185.478 135.248 186.935 135.248 188.326 135.248C191.904 135.248 195.548 135.38 199.059 135.579C295.849 141.144 372.897 221.637 372.897 319.818C372.897 418 295.849 498.426 199.059 503.991Z" fill="black"/>
<path opacity="0.42" d="M169.247 71.0529C166.067 62.1093 159.905 53.4969 151.293 46.6732C139.766 37.597 126.118 33.6221 114.193 34.9471C110.815 35.2783 108.363 38.392 108.761 41.837C110.351 53.7619 117.373 66.0842 128.901 75.1604C137.646 82.0503 147.649 86.0253 157.189 86.9528" fill="#64B878"/>
<path opacity="0.42" d="M189.983 53.2316C191.175 43.4267 195.548 33.9531 203.034 26.4669C213.7 15.8008 228.208 11.5608 241.988 13.6808C244.373 14.0783 246.361 15.9995 246.758 18.4508C248.878 32.2306 244.572 46.8054 233.972 57.4053C226.353 65.024 216.747 69.3965 206.81 70.5227" fill="#64B878"/>
<path d="M20.0533 319.754C20.0533 226.806 95.4449 151.414 188.393 151.414C281.34 151.414 356.732 226.806 356.732 319.754C356.732 412.701 281.34 488.093 188.393 488.093" stroke="black" stroke-width="3.31246" stroke-miterlimit="10"/>
<path d="M195.283 293.915C217.476 302.925 228.738 314.188 228.738 333.334C228.738 350.36 216.88 366.326 194.62 370.036V392.428H181.039V370.632C168.518 370.5 155.599 366.525 148.047 361.158L153.214 346.716C161.032 351.884 172.228 355.991 184.285 355.991C199.589 355.991 209.99 347.18 209.99 334.858C209.99 322.535 201.51 315.711 185.61 309.219M180.575 254.431V268.807C160.767 272.053 147.981 285.634 147.981 303.588C147.981 321.541 161.628 332.208 183.556 340.886L180.575 254.431ZM193.891 254.431V268.012C206.876 268.343 215.687 271.854 221.915 275.498L216.549 289.676C212.044 287.158 203.232 282.388 189.386 282.388C172.758 282.388 166.597 292.326 166.597 300.872C166.597 312.068 174.547 317.699 193.361 325.516L193.891 254.431Z" stroke="#64B878" stroke-width="6.62493" stroke-miterlimit="10"/>
<path d="M195.614 78.4736H179.714V244.428H195.614V78.4736Z" stroke="white" stroke-width="1.58998" stroke-miterlimit="10"/>
<path d="M180.575 254.697V78.4736H193.891V254.697" stroke="black" stroke-width="1.72248" stroke-miterlimit="10"/>
<path d="M188.326 71.6502L209.725 50.2517" stroke="#1A7332" stroke-width="2.51747" stroke-miterlimit="10" stroke-linecap="round"/>
<path d="M148.047 62.9705L170.505 80.7253" stroke="#1A7332" stroke-width="2.38497" stroke-miterlimit="10" stroke-linecap="round"/>
<path d="M180.575 254.696V84.1702H193.891V254.696" stroke="#64B878" stroke-width="6.49243" stroke-miterlimit="10"/>
<path d="M238.875 62.3084C223.505 77.6782 201.974 82.9782 182.165 78.2745C177.461 58.4659 182.761 36.9349 198.131 21.5651C213.501 6.19525 235.032 0.895303 254.708 5.7315C259.611 25.3413 254.244 46.9386 238.941 62.3084H238.875Z" stroke="#64B878" stroke-width="6.62493" stroke-miterlimit="10"/>
<path d="M123.998 80.4605C140.494 92.9816 161.23 95.5653 178.853 89.1391C180.31 70.3906 172.228 51.112 155.798 38.5909C139.368 26.0698 118.566 23.4861 101.076 30.0448C99.4198 48.6608 107.502 67.9393 123.998 80.4605V80.4605Z" stroke="#64B878" stroke-width="6.49243" stroke-miterlimit="10"/>
<path d="M342.488 216.271H363.887" stroke="black" stroke-width="3.31246" stroke-miterlimit="10"/>
<path d="M332.882 201.432H354.281" stroke="black" stroke-width="3.31246" stroke-miterlimit="10"/>
<path d="M318.837 186.592H340.236" stroke="black" stroke-width="3.31246" stroke-miterlimit="10"/>
<path d="M304.793 173.938H326.191" stroke="black" stroke-width="3.31246" stroke-miterlimit="10"/>
<path d="M289.025 161.485H307.84" stroke="black" stroke-width="3.31246" stroke-miterlimit="10"/>
<path d="M270.21 151.414H289.025" stroke="black" stroke-width="3.31246" stroke-miterlimit="10"/>
<path d="M255.768 144.922H274.583" stroke="black" stroke-width="3.31246" stroke-miterlimit="10"/>
<path d="M236.953 140.416H255.768" stroke="black" stroke-width="3.31246" stroke-miterlimit="10"/>
<path d="M346 418.729H367.398" stroke="black" stroke-width="3.31246" stroke-miterlimit="10"/>
<path d="M335.267 433.437H356.666" stroke="black" stroke-width="3.31246" stroke-miterlimit="10"/>
<path d="M322.15 448.077H343.548" stroke="black" stroke-width="3.31246" stroke-miterlimit="10"/>
<path d="M308.171 462.786H329.57" stroke="black" stroke-width="3.31246" stroke-miterlimit="10"/>
<path d="M292.271 473.716H313.67" stroke="black" stroke-width="3.31246" stroke-miterlimit="10"/>
<path d="M281.539 480.673H302.938" stroke="black" stroke-width="3.31246" stroke-miterlimit="10"/>
<path d="M265.176 490.08H286.574" stroke="black" stroke-width="3.31246" stroke-miterlimit="10"/>
</svg>
